<svg xmlns="http://www.w3.org/2000/svg" width="30" height="30" fill="none"><circle cx="15" cy="15" r="14" stroke="#fff" stroke-width="2"/><path stroke="#fff" stroke-width="1.5" d="M19 17.3l-2.2-1a.6.6 0 0 1-.3-.6V15l.2-.2.6-1.2c.3-.2.5-.5.5-.8v-.9c0-.2 0-.4-.2-.6v-1.1c0-.1 0-.8-.4-1.4C16.7 8.3 16 8 15 8c-1 0-1.7.3-2.2.8a2 2 0 0 0-.4 1.4v1.1l-.2.6v.9c0 .2 0 .5.3.6.2.8.6 1.4.8 1.6v.7c0 .2-.2.4-.3.5l-2 1c-.6.4-1 1-1 1.8v.7c0 1 3.3 1.3 5 1.3 1.7 0 5-.3 5-1.3V19a2 2 0 0 0-1-1.7z" clip-rule="evenodd"/></svg>