<svg xmlns="http://www.w3.org/2000/svg" width="156" height="41"><path fill="#ffbf3b" d="M87.7 9.5c0-.4-.3-.8-.8-.8-8.7 0-15.8 7.1-15.8 15.8v14.3c0 .8.7 1.5 1.5 1.5h4.5c.8 0 1.5-.7 1.5-1.5V24.5 24a8.4 8.4 0 0 1 7.7-7.7h.6c.4 0 .8-.4.8-.8V9.5zM105.1 8.7a15.8 15.8 0 0 0 0 31.6 15.8 15.8 0 0 0 0-31.6zm0 24.1a8.3 8.3 0 1 1 0-16.6 8.3 8.3 0 1 1 0 16.6zM139.7 8.7a15.8 15.8 0 0 0 0 31.6 15.8 15.8 0 0 0 0-31.6zm0 24.1a8.3 8.3 0 1 1 0-16.6 8.3 8.3 0 1 1 0 16.6zM32.1 2c0-.8-.7-1.5-1.5-1.5h-4.5c-.8 0-1.5.7-1.5 1.5v9.1A16 16 0 0 0 .5 24.8a15.8 15.8 0 0 0 31.6-.2V2zM16.3 32.8a8.3 8.3 0 1 1 0-16.6 8.3 8.3 0 1 1 0 16.6zM66.7 24.5a15.8 15.8 0 0 0-31.6 0A15.8 15.8 0 0 0 59.2 38v.8c0 .8.7 1.5 1.5 1.5h4.5c.8 0 1.5-.7 1.5-1.5V24.5zm-15.8 8.3a8.3 8.3 0 1 1 0-16.6 8.3 8.3 0 1 1 0 16.6z"/></svg>